<?xml version="1.0" encoding="UTF-8" standalone="no"?>
<!-- Created with Inkscape (http://www.inkscape.org/) -->
<svg
   xmlns:dc="http://purl.org/dc/elements/1.1/"
   xmlns:cc="http://web.resource.org/cc/"
   xmlns:rdf="http://www.w3.org/1999/02/22-rdf-syntax-ns#"
   xmlns:svg="http://www.w3.org/2000/svg"
   xmlns="http://www.w3.org/2000/svg"
   xmlns:sodipodi="http://sodipodi.sourceforge.net/DTD/sodipodi-0.dtd"
   xmlns:inkscape="http://www.inkscape.org/namespaces/inkscape"
   width="728"
   height="90"
   id="svg2168"
   sodipodi:version="0.32"
   inkscape:version="0.45.1"
   sodipodi:docbase="/home/ross/src/Python/Projects/HvZ/hvz/static/images"
   sodipodi:docname="hvz_logo.svg"
   inkscape:output_extension="org.inkscape.output.svg.inkscape"
   version="1.0"
   inkscape:export-filename="/home/ross/src/Python/Projects/HvZ/hvz/static/images/hvz_logo.png"
   inkscape:export-xdpi="90"
   inkscape:export-ydpi="90">
  <sodipodi:namedview
     id="base"
     pagecolor="#ffffff"
     bordercolor="#666666"
     borderopacity="1.0"
     gridtolerance="10000"
     guidetolerance="10"
     objecttolerance="10"
     inkscape:pageopacity="0.0"
     inkscape:pageshadow="2"
     inkscape:zoom="1.8471757"
     inkscape:cx="298.9117"
     inkscape:cy="0.82413129"
     inkscape:document-units="px"
     inkscape:current-layer="layer4"
     inkscape:window-width="1280"
     inkscape:window-height="725"
     inkscape:window-x="0"
     inkscape:window-y="25"
     width="728px"
     height="90px"
     showguides="true"
     inkscape:guide-bbox="true" />
  <defs
     id="defs2170">
    <filter
       inkscape:collect="always"
       x="-0.075289726"
       width="1.1505795"
       y="-0.20239923"
       height="1.4047985"
       id="filter11721">
      <feGaussianBlur
         inkscape:collect="always"
         stdDeviation="0.85387177"
         id="feGaussianBlur11723" />
    </filter>
    <filter
       inkscape:collect="always"
       x="-0.11668568"
       width="1.2333714"
       y="-0.087553206"
       height="1.1751064"
       id="filter11725">
      <feGaussianBlur
         inkscape:collect="always"
         stdDeviation="0.85387177"
         id="feGaussianBlur11727" />
    </filter>
    <filter
       inkscape:collect="always"
       id="filter11729">
      <feGaussianBlur
         inkscape:collect="always"
         stdDeviation="0.85387177"
         id="feGaussianBlur11731" />
    </filter>
    <filter
       inkscape:collect="always"
       id="filter11733">
      <feGaussianBlur
         inkscape:collect="always"
         stdDeviation="0.85387177"
         id="feGaussianBlur11735" />
    </filter>
    <filter
       inkscape:collect="always"
       x="-0.083114514"
       width="1.166229"
       y="-0.10262496"
       height="1.2052499"
       id="filter11737">
      <feGaussianBlur
         inkscape:collect="always"
         stdDeviation="0.85387177"
         id="feGaussianBlur11739" />
    </filter>
    <filter
       inkscape:collect="always"
       id="filter11741">
      <feGaussianBlur
         inkscape:collect="always"
         stdDeviation="0.85387177"
         id="feGaussianBlur11743" />
    </filter>
    <filter
       inkscape:collect="always"
       x="-0.24141089"
       width="1.4828218"
       y="-0.15817921"
       height="1.3163584"
       id="filter12714">
      <feGaussianBlur
         inkscape:collect="always"
         stdDeviation="3.8412008"
         id="feGaussianBlur12716" />
    </filter>
    <filter
       inkscape:collect="always"
       x="-0.47581277"
       width="1.9516255"
       y="-0.25192504"
       height="1.5038501"
       id="filter12718">
      <feGaussianBlur
         inkscape:collect="always"
         stdDeviation="3.8412008"
         id="feGaussianBlur12720" />
    </filter>
    <filter
       inkscape:collect="always"
       x="-0.17316017"
       width="1.3463203"
       y="-0.49768713"
       height="1.9953743"
       id="filter12722">
      <feGaussianBlur
         inkscape:collect="always"
         stdDeviation="3.8412008"
         id="feGaussianBlur12724" />
    </filter>
    <filter
       inkscape:collect="always"
       x="-0.47594499"
       width="1.95189"
       y="-0.64111857"
       height="2.2822371"
       id="filter12726">
      <feGaussianBlur
         inkscape:collect="always"
         stdDeviation="3.8412008"
         id="feGaussianBlur12728" />
    </filter>
    <filter
       inkscape:collect="always"
       x="-0.10865717"
       width="1.2173143"
       y="-0.11664857"
       height="1.2332971"
       id="filter12730">
      <feGaussianBlur
         inkscape:collect="always"
         stdDeviation="3.8412008"
         id="feGaussianBlur12732" />
    </filter>
    <filter
       inkscape:collect="always"
       x="-0.85047149"
       width="2.700943"
       y="-0.56864675"
       height="2.1372935"
       id="filter12734">
      <feGaussianBlur
         inkscape:collect="always"
         stdDeviation="4.0212343"
         id="feGaussianBlur12736" />
    </filter>
    <filter
       inkscape:collect="always"
       x="-0.62138993"
       width="2.2427799"
       y="-0.20712998"
       height="1.41426"
       id="filter12738">
      <feGaussianBlur
         inkscape:collect="always"
         stdDeviation="4.0212343"
         id="feGaussianBlur12740" />
    </filter>
    <filter
       inkscape:collect="always"
       x="-0.85069087"
       width="2.7013817"
       y="-0.56970012"
       height="2.1394002"
       id="filter12742">
      <feGaussianBlur
         inkscape:collect="always"
         stdDeviation="4.0212343"
         id="feGaussianBlur12744" />
    </filter>
    <filter
       inkscape:collect="always"
       x="-0.24090473"
       width="1.4818095"
       y="-0.59486022"
       height="2.1897204"
       id="filter12746">
      <feGaussianBlur
         inkscape:collect="always"
         stdDeviation="4.0212343"
         id="feGaussianBlur12748" />
    </filter>
    <filter
       inkscape:collect="always"
       x="-0.27952243"
       width="1.5590449"
       y="-0.17043571"
       height="1.3408714"
       id="filter12750">
      <feGaussianBlur
         inkscape:collect="always"
         stdDeviation="4.0212343"
         id="feGaussianBlur12752" />
    </filter>
    <filter
       inkscape:collect="always"
       x="-0.15390196"
       width="1.3078039"
       y="-0.48387175"
       height="1.9677435"
       id="filter12754">
      <feGaussianBlur
         inkscape:collect="always"
         stdDeviation="4.0212343"
         id="feGaussianBlur12756" />
    </filter>
    <filter
       inkscape:collect="always"
       x="-0.18102626"
       width="1.3620525"
       y="-0.10868726"
       height="1.2173745"
       id="filter12758">
      <feGaussianBlur
         inkscape:collect="always"
         stdDeviation="4.0212343"
         id="feGaussianBlur12760" />
    </filter>
  </defs>
  <metadata
     id="metadata2173">
    <rdf:RDF>
      <cc:Work
         rdf:about="">
        <dc:format>image/svg+xml</dc:format>
        <dc:type
           rdf:resource="http://purl.org/dc/dcmitype/StillImage" />
      </cc:Work>
    </rdf:RDF>
  </metadata>
  <g
     style="display:none"
     inkscape:label="Background"
     sodipodi:insensitive="true"
     id="layer2"
     inkscape:groupmode="layer">
    <rect
       style="fill:#000000;stroke:#ffffff;stroke-width:1.35848844;stroke-miterlimit:4;stroke-dasharray:none"
       y="0.67926711"
       x="0.67924422"
       height="88.64151"
       width="726.64148"
       id="rect5239" />
  </g>
  <g
     inkscape:label="Halo"
     style="display:inline"
     id="layer3"
     inkscape:groupmode="layer">
    <path
       style="font-size:48px;font-style:normal;font-variant:normal;font-weight:normal;font-stretch:normal;text-align:start;line-height:125%;writing-mode:lr-tb;text-anchor:start;opacity:0.5;fill:#ff0000;fill-opacity:1;stroke:none;stroke-width:1px;stroke-linecap:butt;stroke-linejoin:miter;stroke-opacity:1;filter:url(#filter12730);font-family:Sans"
       transform="matrix(0.674195,0,0,0.674195,6.652262,-10.718307)"
       id="path5290"
       d="M 122.3125,63.34375 C 117.4802,65.693294 109.7908,65.943216 106.59375,69.5 C 109.36744,78.096602 99.578403,74.130486 94.59375,74.96875 C 82.368905,73.983032 71.407079,80.938619 59.786289,83.744532 C 53.224336,85.898863 46.64544,88.002395 40.09375,90.1875 C 40.09375,107.30208 40.09375,124.41667 40.09375,141.53125 C 46.208333,141.53125 52.322917,141.53125 58.4375,141.53125 C 58.4375,124.69792 58.4375,107.86458 58.4375,91.03125 C 74.489583,91.03125 90.541667,91.03125 106.59375,91.03125 C 106.59375,107.86458 106.59375,124.69792 106.59375,141.53125 C 112.70833,141.53125 118.82292,141.53125 124.9375,141.53125 C 124.9375,115.1875 124.9375,88.84375 124.9375,62.5 C 124.0625,62.78125 123.1875,63.0625 122.3125,63.34375 z " />
    <path
       style="font-size:48px;font-style:normal;font-variant:normal;font-weight:normal;font-stretch:normal;text-align:start;line-height:125%;writing-mode:lr-tb;text-anchor:start;opacity:0.5;fill:#ff0000;fill-opacity:1;stroke:none;stroke-width:1px;stroke-linecap:butt;stroke-linejoin:miter;stroke-opacity:1;filter:url(#filter12726);font-family:Sans"
       transform="matrix(0.674195,0,0,0.674195,6.652262,-10.718307)"
       id="path5294"
       d="M 120.5,56.53125 C 115.6438,58.822042 107.98738,59.006407 104.72827,62.499764 C 103.00389,70.474164 105.9914,72.068866 112.97356,68.324749 C 118.42604,66.637416 125.6401,66.274966 123.09226,58.687589 C 123.3491,55.770337 123.40872,55.248797 120.5,56.53125 z " />
    <path
       style="font-size:48px;font-style:normal;font-variant:normal;font-weight:normal;font-stretch:normal;text-align:start;line-height:125%;writing-mode:lr-tb;text-anchor:start;opacity:0.5;fill:#ff0000;fill-opacity:1;stroke:none;stroke-width:1px;stroke-linecap:butt;stroke-linejoin:miter;stroke-opacity:1;filter:url(#filter12722);font-family:Sans"
       transform="matrix(0.674195,0,0,0.674195,6.652262,-10.718307)"
       id="path5296"
       d="M 68.34375,72.9375 C 58.218354,76.113316 48.096026,79.298948 37.96875,82.46875 C 37.018152,89.466934 37.71298,94.163898 45.301705,89.596164 C 60.393658,84.212173 76.46569,81.174495 90.875,74.15625 C 83.519976,72.323624 75.835959,73.042959 68.34375,72.9375 z " />
    <path
       style="font-size:48px;font-style:normal;font-variant:normal;font-weight:normal;font-stretch:normal;text-align:start;line-height:125%;writing-mode:lr-tb;text-anchor:start;opacity:0.5;fill:#ff0000;fill-opacity:1;stroke:none;stroke-width:1px;stroke-linecap:butt;stroke-linejoin:miter;stroke-opacity:1;filter:url(#filter12718);font-family:Sans"
       transform="matrix(0.674195,0,0,0.674195,6.652262,-10.718307)"
       id="path5300"
       d="M 120.4375,24.03125 C 115.45495,24.977209 107.37915,23.052818 104.15623,25.624512 C 104.55386,37.270795 104.97543,48.916275 105.375,60.5625 C 111.43368,58.372301 117.47673,56.139135 123.53125,53.9375 C 123.15004,43.948602 122.78448,33.95891 122.4375,23.96875 L 121.43799,23.999985 L 120.43848,24.03122 L 120.4375,24.03125 z " />
    <path
       style="font-size:48px;font-style:normal;font-variant:normal;font-weight:normal;font-stretch:normal;text-align:start;line-height:125%;writing-mode:lr-tb;text-anchor:start;opacity:0.5;fill:#ff0000;fill-opacity:1;stroke:none;stroke-width:1px;stroke-linecap:butt;stroke-linejoin:miter;stroke-opacity:1;filter:url(#filter12714);font-family:Sans"
       transform="matrix(0.674195,0,0,0.674195,6.652262,-10.718307)"
       id="path5302"
       d="M 54,26.40625 C 49.005965,27.351262 40.922455,25.428915 37.687485,27.999512 C 38.353191,46.87506 39.053968,65.749408 39.71875,84.625 C 51.696817,79.682172 64.638723,76.765549 75.875,70.25 C 69.841904,68.83594 63.679895,69.741171 57.5625,69.84375 C 57.044943,55.34364 56.50125,40.84441 56,26.34375 L 55.000488,26.374985 L 54.000976,26.40622 L 54,26.40625 z " />
    <path
       style="font-size:48px;font-style:normal;font-variant:normal;font-weight:normal;font-stretch:normal;text-align:start;line-height:125%;writing-mode:lr-tb;text-anchor:start;opacity:0.5;fill:#ff0000;fill-opacity:1;stroke:none;stroke-width:1px;stroke-linecap:butt;stroke-linejoin:miter;stroke-opacity:1;filter:url(#filter12758);font-family:Sans"
       transform="matrix(0.674195,0,0,0.674195,6.652262,-10.718307)"
       id="path6452"
       d="M 315.3125,27.84375 C 300.60452,28.776033 285.89378,29.667271 271.1875,30.625 C 271.54762,35.593521 268.83508,43.615839 271.02891,46.775417 C 278.76852,46.265963 286.50977,45.781301 294.25,45.28125 C 285.35483,58.183429 275.7415,70.79942 267.28125,83.875 C 266.46886,94.781258 265.64793,105.68688 264.84375,116.59375 C 282.60866,91.506237 300.37628,66.420541 318.15625,41.34375 C 316.77124,38.263397 319.77159,26.99297 315.3125,27.84375 z " />
    <path
       style="font-size:48px;font-style:normal;font-variant:normal;font-weight:normal;font-stretch:normal;text-align:start;line-height:125%;writing-mode:lr-tb;text-anchor:start;opacity:0.5;fill:#ff0000;fill-opacity:1;stroke:none;stroke-width:1px;stroke-linecap:butt;stroke-linejoin:miter;stroke-opacity:1;filter:url(#filter12754);font-family:Sans"
       transform="matrix(0.674195,0,0,0.674195,6.652262,-10.718307)"
       id="path6454"
       d="M 322.8125,121.53125 C 303.27115,122.77552 283.72724,123.98182 264.1875,125.25 C 264.55236,130.20377 261.79343,138.18538 263.9985,141.35154 C 284.61484,140.07855 305.22834,138.75762 325.84375,137.46875 C 325.50996,132.11395 325.1463,126.76105 324.8125,121.40625 C 324.14583,121.44792 323.47917,121.48958 322.8125,121.53125 z " />
    <path
       style="font-size:48px;font-style:normal;font-variant:normal;font-weight:normal;font-stretch:normal;text-align:start;line-height:125%;writing-mode:lr-tb;text-anchor:start;opacity:0.5;fill:#ff0000;fill-opacity:1;stroke:none;stroke-width:1px;stroke-linecap:butt;stroke-linejoin:miter;stroke-opacity:1;filter:url(#filter12750);font-family:Sans"
       transform="matrix(0.674195,0,0,0.674195,6.652262,-10.718307)"
       id="path6458"
       d="M 255.65625,88.96875 C 245.87428,101.56459 234.87923,113.73806 225.84375,126.59375 C 226.59329,132.15671 222.76475,142.29775 231.84375,139.53125 C 238.71875,139.53125 245.59375,139.53125 252.46875,139.53125 C 252.38706,134.5614 255.6418,126.75104 253.65625,123.46875 C 245.15489,124.34054 258.04899,117.64414 256.12556,112.87146 C 257.47882,103.03921 258.79762,93.202178 260.1875,83.375 C 258.67708,85.239583 257.16667,87.104167 255.65625,88.96875 z " />
    <path
       style="font-size:48px;font-style:normal;font-variant:normal;font-weight:normal;font-stretch:normal;text-align:start;line-height:125%;writing-mode:lr-tb;text-anchor:start;opacity:0.5;fill:#ff0000;fill-opacity:1;stroke:none;stroke-width:1px;stroke-linecap:butt;stroke-linejoin:miter;stroke-opacity:1;filter:url(#filter12746);font-family:Sans"
       transform="matrix(0.674195,0,0,0.674195,6.652262,-10.718307)"
       id="path6460"
       d="M 227.46875,31.46875 C 228.84919,36.11956 223.99754,47.00246 231.46875,45.5625 C 242.78125,45.5625 254.09375,45.5625 265.40625,45.5625 C 265.32661,40.581696 268.57593,32.762337 266.59375,29.46875 C 253.55208,29.46875 240.51042,29.46875 227.46875,29.46875 L 227.46875,30.46875 L 227.46875,31.46875 z " />
    <path
       style="font-size:48px;font-style:normal;font-variant:normal;font-weight:normal;font-stretch:normal;text-align:start;line-height:125%;writing-mode:lr-tb;text-anchor:start;opacity:0.5;fill:#ff0000;fill-opacity:1;stroke:none;stroke-width:1px;stroke-linecap:butt;stroke-linejoin:miter;stroke-opacity:1;filter:url(#filter12742);font-family:Sans"
       transform="matrix(0.674195,0,0,0.674195,6.652262,-10.718307)"
       id="path6464"
       d="M 252.40625,127.1875 C 253.13905,131.42022 247.7561,140.98633 252.71875,141.53125 C 260.86345,144.15547 260.30798,136.85227 260.97426,130.89616 C 264.9906,124.03038 255.33621,124.38268 252.49875,126.46075 L 252.40625,127.1875 z " />
    <path
       style="font-size:48px;font-style:normal;font-variant:normal;font-weight:normal;font-stretch:normal;text-align:start;line-height:125%;writing-mode:lr-tb;text-anchor:start;opacity:0.5;fill:#ff0000;fill-opacity:1;stroke:none;stroke-width:1px;stroke-linecap:butt;stroke-linejoin:miter;stroke-opacity:1;filter:url(#filter12738);font-family:Sans"
       transform="matrix(0.674195,0,0,0.674195,6.652262,-10.718307)"
       id="path6466"
       d="M 263.78125,83.40625 C 259.71147,87.880464 255.80077,92.422146 256.30077,98.872842 C 255.13045,107.38437 253.98693,115.89962 252.78125,124.40625 C 257.38672,117.66198 265.48053,112.42538 264.76896,103.37815 C 265.94816,94.855993 267.10874,86.331242 268.3125,77.8125 C 266.80208,79.677083 265.29167,81.541667 263.78125,83.40625 z " />
    <path
       style="font-size:48px;font-style:normal;font-variant:normal;font-weight:normal;font-stretch:normal;text-align:start;line-height:125%;writing-mode:lr-tb;text-anchor:start;opacity:0.5;fill:#ff0000;fill-opacity:1;stroke:none;stroke-width:1px;stroke-linecap:butt;stroke-linejoin:miter;stroke-opacity:1;filter:url(#filter12734);font-family:Sans"
       transform="matrix(0.674195,0,0,0.674195,6.652262,-10.718307)"
       id="path6468"
       d="M 265.34375,33.1875 C 266.07846,37.429126 260.69303,47.00986 265.65625,47.5625 C 273.80156,50.186805 273.24493,42.883445 273.90866,36.926981 C 277.93772,30.042941 268.29493,30.371141 265.43625,32.460748 L 265.34375,33.1875 z " />
  </g>
  <g
     inkscape:label="Logo"
     style="display:inline"
     id="layer1"
     inkscape:groupmode="layer">
    <path
       style="font-size:48px;font-style:normal;font-variant:normal;font-weight:normal;font-stretch:normal;text-align:start;line-height:125%;writing-mode:lr-tb;text-anchor:start;fill:#ffffff;fill-opacity:1;stroke:none;stroke-width:1px;stroke-linecap:butt;stroke-linejoin:miter;stroke-opacity:1;font-family:Sans"
       d="M 65.328298,41.173642 L 35.031659,51.05481 L 35.031659,83.352971 L 44.702144,83.352971 L 44.702144,49.306115 L 79.865629,49.306115 L 79.865629,83.352971 L 89.536114,83.352971 L 89.536114,33.27292 L 79.865629,36.433209 L 79.865629,41.173642 L 65.328298,41.173642 z "
       id="path3189" />
    <g
       style="fill:#ffffff;stroke:none"
       id="g4229"
       transform="matrix(0.6741557,7.286913e-3,-7.286913e-3,0.6741557,5.859561,-12.664996)">
      <path
         style="font-size:48px;font-style:normal;font-variant:normal;font-weight:normal;font-stretch:normal;text-align:start;line-height:125%;writing-mode:lr-tb;text-anchor:start;fill:#ffffff;fill-opacity:1;stroke:none;stroke-width:1px;stroke-linecap:butt;stroke-linejoin:miter;stroke-opacity:1;font-family:Sans"
         id="path3191"
         d="M 108.59375,69.9375 L 122.9375,65.25 L 122.9375,60 L 108.59375,64.6875 L 108.59375,69.9375 z " />
      <path
         style="font-size:48px;font-style:normal;font-variant:normal;font-weight:normal;font-stretch:normal;text-align:start;line-height:125%;writing-mode:lr-tb;text-anchor:start;fill:#ffffff;fill-opacity:1;stroke:none;stroke-width:1px;stroke-linecap:butt;stroke-linejoin:miter;stroke-opacity:1;font-family:Sans"
         id="path3187"
         d="M 70.9375,76.96875 L 42.09375,86.375 L 42.09375,91.625 L 87.03125,76.96875 L 70.9375,76.96875 z " />
    </g>
    <path
       style="font-size:48px;font-style:normal;font-variant:normal;font-weight:normal;font-stretch:normal;text-align:start;line-height:125%;writing-mode:lr-tb;text-anchor:start;fill:#000000;fill-opacity:1;stroke:#ffffff;stroke-width:0.67419505px;stroke-linecap:butt;stroke-linejoin:miter;stroke-opacity:1;font-family:Sans"
       d="M 102.08125,29.719912 L 111.42097,29.719912 L 128.18459,74.742172 L 144.9482,29.719912 L 154.28793,29.719912 L 134.17159,83.363451 L 122.19758,83.363451 L 102.08125,29.719912"
       id="path2183" />
    <g
       style="fill:#89a02c;stroke:none"
       id="g5234"
       transform="matrix(0.6728646,-4.2333164e-2,4.2333164e-2,0.6728646,6.069187,0.2026287)">
      <path
         style="font-size:48px;font-style:normal;font-variant:normal;font-weight:normal;font-stretch:normal;text-align:start;line-height:125%;writing-mode:lr-tb;text-anchor:start;fill:#89a02c;fill-opacity:1;stroke:none;stroke-width:1px;stroke-linecap:butt;stroke-linejoin:miter;stroke-opacity:1;font-family:Sans"
         id="path5223"
         d="M 261.84375,110.03125 L 314.8125,44.40625 L 314.8125,33.46875 L 272.375,33.46875 L 270.71875,45.5625 L 296.90625,45.5625 L 265.34375,84.65625 L 261.84375,110.03125 z " />
      <path
         style="font-size:48px;font-style:normal;font-variant:normal;font-weight:normal;font-stretch:normal;text-align:start;line-height:125%;writing-mode:lr-tb;text-anchor:start;fill:#89a02c;fill-opacity:1;stroke:none;stroke-width:1px;stroke-linecap:butt;stroke-linejoin:miter;stroke-opacity:1;font-family:Sans"
         id="path5221"
         d="M 259.4375,127.46875 L 257.78125,139.53125 L 316.4375,139.53125 L 316.4375,127.46875 L 259.4375,127.46875 z " />
    </g>
    <g
       style="fill:#89a02c;stroke:none"
       id="g5230"
       transform="matrix(0.674195,0,0,0.674195,5.303872,-12.066696)">
      <path
         style="font-size:48px;font-style:normal;font-variant:normal;font-weight:normal;font-stretch:normal;text-align:start;line-height:125%;writing-mode:lr-tb;text-anchor:start;fill:#89a02c;fill-opacity:1;stroke:none;stroke-width:1px;stroke-linecap:butt;stroke-linejoin:miter;stroke-opacity:1;font-family:Sans"
         id="path5217"
         d="M 259.21875,92.21875 L 229.84375,128.59375 L 229.84375,139.53125 L 252.71875,139.53125 L 254.375,127.46875 L 247.75,127.46875 L 255.75,117.5625 L 259.21875,92.21875 z " />
      <path
         style="font-size:48px;font-style:normal;font-variant:normal;font-weight:normal;font-stretch:normal;text-align:start;line-height:125%;writing-mode:lr-tb;text-anchor:start;fill:#89a02c;fill-opacity:1;stroke:none;stroke-width:1px;stroke-linecap:butt;stroke-linejoin:miter;stroke-opacity:1;font-family:Sans"
         id="path5213"
         d="M 267.3125,33.46875 L 231.46875,33.46875 L 231.46875,45.5625 L 265.65625,45.5625 L 267.3125,33.46875 z " />
    </g>
    <g
       style="fill:#89a02c;stroke:none"
       id="g5225"
       transform="matrix(0.674195,0,0,0.674195,6.652262,-10.718307)">
      <path
         style="font-size:48px;font-style:normal;font-variant:normal;font-weight:normal;font-stretch:normal;text-align:start;line-height:125%;writing-mode:lr-tb;text-anchor:start;fill:#89a02c;fill-opacity:1;stroke:none;stroke-width:1px;stroke-linecap:butt;stroke-linejoin:miter;stroke-opacity:1;font-family:Sans"
         id="path5219"
         d="M 254.375,127.46875 L 252.71875,139.53125 L 257.78125,139.53125 L 259.4375,127.46875 L 254.375,127.46875 z " />
      <path
         style="font-size:48px;font-style:normal;font-variant:normal;font-weight:normal;font-stretch:normal;text-align:start;line-height:125%;writing-mode:lr-tb;text-anchor:start;fill:#89a02c;fill-opacity:1;stroke:none;stroke-width:1px;stroke-linecap:butt;stroke-linejoin:miter;stroke-opacity:1;font-family:Sans"
         id="path5215"
         d="M 259.21875,92.21875 L 255.75,117.5625 L 261.84375,110.03125 L 265.34375,84.65625 L 259.21875,92.21875 z " />
      <path
         style="font-size:48px;font-style:normal;font-variant:normal;font-weight:normal;font-stretch:normal;text-align:start;line-height:125%;writing-mode:lr-tb;text-anchor:start;fill:#89a02c;fill-opacity:1;stroke:none;stroke-width:1px;stroke-linecap:butt;stroke-linejoin:miter;stroke-opacity:1;font-family:Sans"
         id="text2176"
         d="M 267.3125,33.46875 L 265.65625,45.5625 L 270.71875,45.5625 L 272.375,33.46875 L 267.3125,33.46875 z " />
    </g>
    <g
       style="fill:#ffffff;stroke:none;display:inline"
       id="g4233"
       transform="matrix(0.6737635,-2.4120416e-2,2.4120416e-2,0.6737635,4.263532,-12.745419)">
      <path
         style="font-size:48px;font-style:normal;font-variant:normal;font-weight:normal;font-stretch:normal;text-align:start;line-height:125%;writing-mode:lr-tb;text-anchor:start;fill:#ffffff;fill-opacity:1;stroke:none;stroke-width:1px;stroke-linecap:butt;stroke-linejoin:miter;stroke-opacity:1;font-family:Sans"
         id="path3193"
         d="M 108.59375,64.6875 L 122.9375,60 L 122.9375,33.46875 L 108.59375,33.46875 L 108.59375,64.6875 z " />
      <path
         style="font-size:48px;font-style:normal;font-variant:normal;font-weight:normal;font-stretch:normal;text-align:start;line-height:125%;writing-mode:lr-tb;text-anchor:start;fill:#ffffff;fill-opacity:1;stroke:none;stroke-width:1px;stroke-linecap:butt;stroke-linejoin:miter;stroke-opacity:1;font-family:Sans"
         id="path2185"
         d="M 42.09375,33.46875 L 42.09375,86.375 L 70.9375,76.96875 L 56.4375,76.96875 L 56.4375,33.46875 L 42.09375,33.46875 z " />
    </g>
  </g>
  <g
     inkscape:label="Hand"
     id="layer4"
     inkscape:groupmode="layer"
     style="display:inline">
    <path
       style="fill:#aa0000;fill-rule:evenodd;stroke:none;stroke-width:1px;stroke-linecap:butt;stroke-linejoin:miter;stroke-opacity:1;filter:url(#filter11741)"
       d="M 588.60798,50.480207 C 588.60798,50.480207 591.66394,48.750416 595.78121,46.419887 C 597.97175,45.179958 600.46271,43.769982 602.95369,42.359995 C 605.4449,40.949875 607.93613,39.539744 610.1269,38.299685 C 614.24432,35.96907 617.30043,34.239196 617.30043,34.239196 C 618.65875,37.201399 619.86107,40.067438 620.9253,42.821028 C 622.11515,45.899619 623.1324,48.83765 624.00207,51.612365 C 625.01331,54.838738 625.82503,57.8443 626.47658,60.593271 C 627.30219,64.076599 627.87063,67.147936 628.26197,69.73449 C 629.15349,75.626947 629.12591,79.003482 629.12591,79.003482 C 629.12591,79.003482 620.54862,82.962229 620.54862,82.962229 C 620.54862,82.962229 618.82213,79.74467 615.57829,75.191938 C 614.02291,73.008962 612.11869,70.519021 609.88867,67.929622 C 607.99699,65.733077 605.87087,63.464963 603.52438,61.251949 C 601.3495,59.200778 598.98532,57.196943 596.44303,55.341301 C 593.99336,53.553267 591.37834,51.902825 588.60798,50.480207 C 588.60798,50.480207 588.60798,50.480207 588.60798,50.480207"
       sodipodi:nodetypes="csssc"
       id="path2358" />
    <path
       style="fill:#aa0000;fill-opacity:1;fill-rule:evenodd;stroke:none;stroke-width:3;stroke-linecap:butt;stroke-linejoin:miter;stroke-miterlimit:4;stroke-dasharray:none;stroke-opacity:1;filter:url(#filter11737)"
       d="M 568.15625,26.40625 L 566.84375,29.09375 L 583.21875,37.03125 L 588.9375,46.375 L 591.5,44.8125 L 585.5625,35.09375 L 585.3125,34.71875 L 584.9375,34.5 L 568.15625,26.40625 z "
       id="path2360" />
    <path
       style="fill:#aa0000;fill-opacity:1;fill-rule:evenodd;stroke:none;stroke-width:3;stroke-linecap:butt;stroke-linejoin:miter;stroke-miterlimit:4;stroke-dasharray:none;stroke-opacity:1;filter:url(#filter11733)"
       d="M 570.125,14.28125 L 568.78125,16.96875 L 589.21875,27.21875 L 595.875,43.46875 L 598.65625,42.34375 L 591.78125,25.5625 L 591.5625,25.03125 L 591.0625,24.78125 L 570.125,14.28125 z "
       id="path2362" />
    <path
       style="fill:#aa0000;fill-opacity:1;fill-rule:evenodd;stroke:none;stroke-width:3;stroke-linecap:butt;stroke-linejoin:miter;stroke-miterlimit:4;stroke-dasharray:none;stroke-opacity:1;filter:url(#filter11729)"
       d="M 586.28125,10.3125 L 584.4375,12.6875 L 599.75,24.84375 L 603.96875,38.46875 L 606.8125,37.59375 L 602.5,23.5 L 602.34375,23.0625 L 602,22.78125 L 586.28125,10.3125 z "
       id="path2364" />
    <path
       style="fill:#aa0000;fill-opacity:1;fill-rule:evenodd;stroke:none;stroke-width:3;stroke-linecap:butt;stroke-linejoin:miter;stroke-miterlimit:4;stroke-dasharray:none;stroke-opacity:1;filter:url(#filter11725)"
       d="M 600.53125,8.625 L 598.4375,10.78125 L 609.34375,21.375 L 613.1875,32.03125 L 616,31.03125 L 612.0625,20.03125 L 611.9375,19.71875 L 611.6875,19.46875 L 600.53125,8.625 z "
       id="path2366" />
    <path
       style="fill:#aa0000;fill-opacity:1;fill-rule:evenodd;stroke:none;stroke-width:3;stroke-linecap:butt;stroke-linejoin:miter;stroke-miterlimit:4;stroke-dasharray:none;stroke-opacity:1;filter:url(#filter11721)"
       d="M 581.03125,59.46875 L 579.625,62.125 L 593.375,69.40625 L 593.75,69.59375 L 594.1875,69.5625 L 606.84375,68.75 L 606.65625,65.75 L 594.4375,66.5625 L 581.03125,59.46875 z "
       id="path2368" />
  </g>
</svg>
