<?xml version="1.0" encoding="UTF-8" standalone="no"?>
<!-- Created with Inkscape (http://www.inkscape.org/) -->
<svg
   xmlns:dc="http://purl.org/dc/elements/1.1/"
   xmlns:cc="http://web.resource.org/cc/"
   xmlns:rdf="http://www.w3.org/1999/02/22-rdf-syntax-ns#"
   xmlns:svg="http://www.w3.org/2000/svg"
   xmlns="http://www.w3.org/2000/svg"
   xmlns:sodipodi="http://sodipodi.sourceforge.net/DTD/sodipodi-0.dtd"
   xmlns:inkscape="http://www.inkscape.org/namespaces/inkscape"
   width="400"
   height="300"
   id="svg2"
   sodipodi:version="0.32"
   inkscape:version="0.45.1"
   version="1.0"
   sodipodi:docbase="/home/ross/src/Python/Projects/TurboHvZ/hvz/static/images"
   sodipodi:docname="wristband.svg"
   inkscape:output_extension="org.inkscape.output.svg.inkscape"
   inkscape:export-filename="/home/ross/src/Python/Projects/TurboHvZ/hvz/static/images/wristband.png"
   inkscape:export-xdpi="90"
   inkscape:export-ydpi="90">
  <defs
     id="defs4" />
  <sodipodi:namedview
     id="base"
     pagecolor="#ffffff"
     bordercolor="#666666"
     borderopacity="1.0"
     gridtolerance="10000"
     guidetolerance="10"
     objecttolerance="10"
     inkscape:pageopacity="0.0"
     inkscape:pageshadow="2"
     inkscape:zoom="1"
     inkscape:cx="110.98914"
     inkscape:cy="168.31856"
     inkscape:document-units="px"
     inkscape:current-layer="layer1"
     width="400px"
     height="300px"
     showgrid="false"
     inkscape:grid-points="false"
     inkscape:window-width="1280"
     inkscape:window-height="725"
     inkscape:window-x="0"
     inkscape:window-y="25" />
  <metadata
     id="metadata7">
    <rdf:RDF>
      <cc:Work
         rdf:about="">
        <dc:format>image/svg+xml</dc:format>
        <dc:type
           rdf:resource="http://purl.org/dc/dcmitype/StillImage" />
      </cc:Work>
    </rdf:RDF>
  </metadata>
  <g
     inkscape:label="Layer 1"
     inkscape:groupmode="layer"
     id="layer1">
    <g
       id="g3180"
       transform="matrix(0.7743143,0,0,0.7743143,100.23949,41.932963)">
      <path
         sodipodi:nodetypes="ccczcc"
         id="rect2166"
         d="M 25,35 L 125,35 L 125,125 C 125,125 125,140 75,140 C 25,140 25,125 25,125 L 25,35 z "
         style="fill:#ffffff;fill-opacity:1;stroke:#000000;stroke-width:1;stroke-linecap:butt;stroke-linejoin:miter;stroke-miterlimit:4" />
      <path
         sodipodi:nodetypes="czczc"
         id="path2162"
         d="M 24.5,35.5 C 24.5,35.5 29.5,50.5 74.5,50.5 C 119.5,50.5 124.5,35.5 124.5,35.5 C 124.5,35.5 109.5,20.5 74.5,20.5 C 39.5,20.5 24.652543,35.035227 24.5,35.5 z "
         style="fill:#ffffff;fill-rule:evenodd;stroke:#000000;stroke-width:1px;stroke-linecap:butt;stroke-linejoin:miter;stroke-opacity:1" />
      <path
         id="text3140"
         d="M 53.324211,63.763677 L 61.609375,63.763677 L 61.609375,88.865243 L 91.714836,88.865243 L 91.714836,63.763677 L 100,63.763677 L 100,125 L 91.714836,125 L 91.714836,95.837901 L 61.609375,95.837901 L 61.609375,125 L 53.324211,125 L 53.324211,63.763677"
         style="font-size:12px;font-style:normal;font-weight:normal;fill:#000000;fill-opacity:1;stroke:none;stroke-width:1px;stroke-linecap:butt;stroke-linejoin:miter;stroke-opacity:1;font-family:Bitstream Vera Sans" />
    </g>
    <g
       id="g3173"
       transform="matrix(0.7743143,0,0,0.7743143,111.07988,85.681719)">
      <path
         sodipodi:nodetypes="ccczcc"
         id="path3151"
         d="M 11,159.5 L 111,159.5 L 111,249.5 C 111,249.5 111,264.5 61,264.5 C 11,264.5 11,249.5 11,249.5 L 11,159.5 z "
         style="fill:#ffffff;fill-opacity:1;stroke:#000000;stroke-width:1;stroke-linecap:butt;stroke-linejoin:miter;stroke-miterlimit:4" />
      <path
         sodipodi:nodetypes="czczc"
         id="path3153"
         d="M 10.5,160 C 10.5,160 15.5,175 60.5,175 C 105.5,175 110.5,160 110.5,160 C 110.5,160 95.5,145 60.5,145 C 25.5,145 10.65254,159.53523 10.5,160 z "
         style="fill:#ffffff;fill-rule:evenodd;stroke:#000000;stroke-width:1px;stroke-linecap:butt;stroke-linejoin:miter;stroke-opacity:1" />
      <path
         id="text3163"
         d="M 35.943362,185 L 84.054691,185 L 84.054691,191.31645 L 45.335941,239.26366 L 84.998046,239.26366 L 84.998046,246.23635 L 35,246.23635 L 35,239.91991 L 73.71875,191.9727 L 35.943362,191.9727 L 35.943362,185"
         style="font-size:12px;font-style:normal;font-weight:normal;fill:#000000;fill-opacity:1;stroke:none;stroke-width:1px;stroke-linecap:butt;stroke-linejoin:miter;stroke-opacity:1;font-family:Bitstream Vera Sans" />
      <path
         style="font-size:12px;font-style:normal;font-weight:normal;fill:#000000;fill-opacity:1;stroke:none;stroke-width:1px;stroke-linecap:butt;stroke-linejoin:miter;stroke-opacity:1;font-family:Bitstream Vera Sans"
         d="M 35.943362,185 L 84.054691,185 L 84.054691,191.31645 L 45.335941,239.26366 L 84.998046,239.26366 L 84.998046,246.23635 L 35,246.23635 L 35,239.91991 L 73.71875,191.9727 L 35.943362,191.9727 L 35.943362,185"
         id="path3168" />
      <path
         id="rect3170"
         d="M 44.089957,211.61152 L 74.703987,211.61152 L 74.703987,218.89102 L 44.089957,218.89102 L 44.089957,211.61152 z "
         style="fill:#000000;fill-opacity:1;stroke:none;stroke-width:0.7915622;stroke-linecap:butt;stroke-linejoin:miter;stroke-miterlimit:4" />
    </g>
    <g
       transform="matrix(0.7743143,0,0,0.7743143,271.7501,41.932963)"
       id="g3208">
      <path
         style="fill:#ffffff;fill-opacity:1;stroke:#000000;stroke-width:1;stroke-linecap:butt;stroke-linejoin:miter;stroke-miterlimit:4"
         d="M 25,35 L 125,35 L 125,125 C 125,125 125,140 75,140 C 25,140 25,125 25,125 L 25,35 z "
         id="path3210"
         sodipodi:nodetypes="ccczcc" />
      <path
         style="fill:#ffffff;fill-rule:evenodd;stroke:#000000;stroke-width:1px;stroke-linecap:butt;stroke-linejoin:miter;stroke-opacity:1"
         d="M 24.5,35.5 C 24.5,35.5 29.5,50.5 74.5,50.5 C 119.5,50.5 124.5,35.5 124.5,35.5 C 124.5,35.5 109.5,20.5 74.5,20.5 C 39.5,20.5 24.652543,35.035227 24.5,35.5 z "
         id="path3212"
         sodipodi:nodetypes="czczc" />
      <path
         style="font-size:12px;font-style:normal;font-weight:normal;fill:#000000;fill-opacity:1;stroke:none;stroke-width:1px;stroke-linecap:butt;stroke-linejoin:miter;stroke-opacity:1;font-family:Bitstream Vera Sans"
         d="M 53.324211,63.763677 L 61.609375,63.763677 L 61.609375,88.865243 L 91.714836,88.865243 L 91.714836,63.763677 L 100,63.763677 L 100,125 L 91.714836,125 L 91.714836,95.837901 L 61.609375,95.837901 L 61.609375,125 L 53.324211,125 L 53.324211,63.763677"
         id="path3214" />
    </g>
    <g
       transform="matrix(0.7743143,0,0,0.7743143,282.5905,85.681719)"
       id="g3216">
      <path
         style="fill:#ffffff;fill-opacity:1;stroke:#000000;stroke-width:1;stroke-linecap:butt;stroke-linejoin:miter;stroke-miterlimit:4"
         d="M 11,159.5 L 111,159.5 L 111,249.5 C 111,249.5 111,264.5 61,264.5 C 11,264.5 11,249.5 11,249.5 L 11,159.5 z "
         id="path3218"
         sodipodi:nodetypes="ccczcc" />
      <path
         style="fill:#ffffff;fill-rule:evenodd;stroke:#000000;stroke-width:1px;stroke-linecap:butt;stroke-linejoin:miter;stroke-opacity:1"
         d="M 10.5,160 C 10.5,160 15.5,175 60.5,175 C 105.5,175 110.5,160 110.5,160 C 110.5,160 95.5,145 60.5,145 C 25.5,145 10.65254,159.53523 10.5,160 z "
         id="path3220"
         sodipodi:nodetypes="czczc" />
      <path
         style="font-size:12px;font-style:normal;font-weight:normal;fill:#000000;fill-opacity:1;stroke:none;stroke-width:1px;stroke-linecap:butt;stroke-linejoin:miter;stroke-opacity:1;font-family:Bitstream Vera Sans"
         d="M 35.943362,185 L 84.054691,185 L 84.054691,191.31645 L 45.335941,239.26366 L 84.998046,239.26366 L 84.998046,246.23635 L 35,246.23635 L 35,239.91991 L 73.71875,191.9727 L 35.943362,191.9727 L 35.943362,185"
         id="path3222" />
      <path
         id="path3224"
         d="M 35.943362,185 L 84.054691,185 L 84.054691,191.31645 L 45.335941,239.26366 L 84.998046,239.26366 L 84.998046,246.23635 L 35,246.23635 L 35,239.91991 L 73.71875,191.9727 L 35.943362,191.9727 L 35.943362,185"
         style="font-size:12px;font-style:normal;font-weight:normal;fill:#000000;fill-opacity:1;stroke:none;stroke-width:1px;stroke-linecap:butt;stroke-linejoin:miter;stroke-opacity:1;font-family:Bitstream Vera Sans" />
      <path
         style="fill:#000000;fill-opacity:1;stroke:none;stroke-width:0.7915622;stroke-linecap:butt;stroke-linejoin:miter;stroke-miterlimit:4"
         d="M 44.089957,211.61152 L 74.703987,211.61152 L 74.703987,218.89102 L 44.089957,218.89102 L 44.089957,211.61152 z "
         id="path3226" />
    </g>
    <text
       xml:space="preserve"
       style="font-size:27.87531281px;font-style:normal;font-weight:normal;fill:#000000;fill-opacity:1;stroke:none;stroke-width:1px;stroke-linecap:butt;stroke-linejoin:miter;stroke-opacity:1;font-family:Impact"
       x="130.23441"
       y="36.322723"
       id="text3228"><tspan
         sodipodi:role="line"
         id="tspan3230"
         x="130.23441"
         y="36.322723">front</tspan></text>
    <text
       xml:space="preserve"
       style="font-size:27.87531281px;font-style:normal;font-weight:normal;fill:#000000;fill-opacity:1;stroke:none;stroke-width:1px;stroke-linecap:butt;stroke-linejoin:miter;stroke-opacity:1;font-family:Impact"
       x="296.48737"
       y="36.322723"
       id="text3232"><tspan
         sodipodi:role="line"
         id="tspan3234"
         x="296.48737"
         y="36.322723">back</tspan></text>
    <text
       xml:space="preserve"
       style="font-size:27.87531281px;font-style:normal;font-weight:normal;fill:#000000;fill-opacity:1;stroke:none;stroke-width:1px;stroke-linecap:butt;stroke-linejoin:miter;stroke-opacity:1;font-family:Impact"
       x="12.33637"
       y="112.72298"
       id="text3236"><tspan
         sodipodi:role="line"
         id="tspan3238"
         x="12.33637"
         y="112.72298">outside</tspan></text>
    <text
       xml:space="preserve"
       style="font-size:27.87531281px;font-style:normal;font-weight:normal;fill:#000000;fill-opacity:1;stroke:none;stroke-width:1px;stroke-linecap:butt;stroke-linejoin:miter;stroke-opacity:1;font-family:Impact"
       x="27.471794"
       y="260.617"
       id="text3240"><tspan
         sodipodi:role="line"
         id="tspan3242"
         x="27.471794"
         y="260.617">inside</tspan></text>
    <path
       style="fill:none;fill-rule:evenodd;stroke:#ff0000;stroke-width:1.54862857px;stroke-linecap:butt;stroke-linejoin:miter;stroke-opacity:1"
       d="M 188.70489,92.069812 L 204.19118,92.069812 L 204.19118,134.6571 L 187.93058,134.6571"
       id="path3244" />
    <path
       id="path3246"
       d="M 186.38195,229.89775 L 201.86823,229.89775 L 201.86823,272.48504 L 185.60763,272.48504"
       style="fill:none;fill-rule:evenodd;stroke:#ff0000;stroke-width:1.54862857px;stroke-linecap:butt;stroke-linejoin:miter;stroke-opacity:1" />
    <text
       xml:space="preserve"
       style="font-size:17.83442116px;font-style:normal;font-weight:normal;fill:#ff0000;fill-opacity:1;stroke:none;stroke-width:1px;stroke-linecap:butt;stroke-linejoin:miter;stroke-opacity:1;font-family:Impact"
       x="207.21526"
       y="121.20333"
       id="text3248"><tspan
         sodipodi:role="line"
         id="tspan3250"
         x="207.21526"
         y="121.20333">1.5 inches</tspan></text>
    <text
       id="text3252"
       y="257.48264"
       x="207.21526"
       style="font-size:17.83442116px;font-style:normal;font-weight:normal;fill:#ff0000;fill-opacity:1;stroke:none;stroke-width:1px;stroke-linecap:butt;stroke-linejoin:miter;stroke-opacity:1;font-family:Impact"
       xml:space="preserve"><tspan
         y="257.48264"
         x="207.21526"
         id="tspan3254"
         sodipodi:role="line">1.5 inches</tspan></text>
    <path
       id="path3256"
       d="M 299.43183,92.069812 L 283.94555,92.069812 L 283.94555,134.6571 L 300.20614,134.6571"
       style="fill:none;fill-rule:evenodd;stroke:#ff0000;stroke-width:1.54862857px;stroke-linecap:butt;stroke-linejoin:miter;stroke-opacity:1" />
    <path
       style="fill:none;fill-rule:evenodd;stroke:#ff0000;stroke-width:1.54862857px;stroke-linecap:butt;stroke-linejoin:miter;stroke-opacity:1"
       d="M 298.65752,229.89775 L 283.17123,229.89775 L 283.17123,272.48504 L 299.43183,272.48504"
       id="path3258" />
  </g>
</svg>
